<?xml version="1.0" encoding="UTF-8" standalone="no"?>
<svg width="512px" height="512px" viewBox="0 0 512 512" version="1.1" xmlns="http://www.w3.org/2000/svg" xmlns:xlink="http://www.w3.org/1999/xlink" xmlns:sketch="http://www.bohemiancoding.com/sketch/ns">
    <!-- Generator: Sketch 3.4.4 (17249) - http://www.bohemiancoding.com/sketch -->
    <title>edit</title>
    <desc>Created with Sketch.</desc>
    <defs></defs>
    <g id="custom" stroke="none" stroke-width="1" fill="none" fill-rule="evenodd" sketch:type="MSPage">
        <g id="edit" sketch:type="MSArtboardGroup" fill="#000000">
            <g id="Path-+-Path" sketch:type="MSLayerGroup" transform="translate(48.000000, 38.000000)">
                <path d="M239.500285,77.4705882 L0.21875,316.89966 L0.21875,436.614196 L119.859518,436.614196 L359.141053,197.185124 L239.500285,77.4705882 Z M255.030577,132.723451 C255.030577,134.450103 254.455381,136.176755 253.017391,137.615632 L97.1392757,293.589859 C95.7012857,295.028735 93.9756977,295.604286 92.2501097,295.604286 C88.5113357,295.604286 85.9229537,293.014308 85.9229537,289.273229 C85.9229537,287.546577 86.4981497,285.819925 87.9361397,284.381048 L243.814255,128.406821 C245.252245,126.967944 246.977833,126.392394 248.703421,126.392394 C252.442195,126.392394 255.030577,128.982372 255.030577,132.723451 Z M104.616824,399.778954 L73.8438378,399.778954 L73.8438378,362.943713 L37.0312939,362.943713 L37.0312939,332.151753 L63.2027118,305.964198 L130.788242,373.5914 L104.616824,399.778954 Z" id="Path" sketch:type="MSShapeGroup"></path>
                <path d="M425.172719,113.150686 C425.172719,103.366325 421.146347,93.8697391 414.531593,86.9631312 L346.946063,19.6237047 C340.043711,12.7170969 330.552977,8.6882423 320.774645,8.6882423 C310.996313,8.6882423 301.505579,12.7170969 294.890825,19.6237047 L247.149557,67.1066337 L366.790325,186.82117 L414.531593,139.050465 C421.146347,132.431633 425.172719,122.935047 425.172719,113.150686 L425.172719,113.150686 Z" id="Path" sketch:type="MSShapeGroup"></path>
            </g>
        </g>
    </g>
</svg>