<?xml version="1.0" encoding="UTF-8" standalone="no"?>
<svg width="512px" height="512px" viewBox="0 0 512 512" version="1.1" xmlns="http://www.w3.org/2000/svg" xmlns:xlink="http://www.w3.org/1999/xlink" xmlns:sketch="http://www.bohemiancoding.com/sketch/ns">
    <!-- Generator: Sketch 3.4.4 (17249) - http://www.bohemiancoding.com/sketch -->
    <title>logout</title>
    <desc>Created with Sketch.</desc>
    <defs></defs>
    <g id="custom" stroke="none" stroke-width="1" fill="none" fill-rule="evenodd" sketch:type="MSPage">
        <g id="logout" sketch:type="MSArtboardGroup" fill="#000000">
            <g id="Rectangle-199-+-Path-133-+-Rectangle-202" sketch:type="MSLayerGroup" transform="translate(24.000000, 34.000000)">
                <path d="M188.545627,355.798392 L282.26028,355.798392 C287.786939,355.798392 292.267181,351.313563 292.267181,345.797207 L292.267181,232.675514 L322.626442,232.675514 L322.626442,155.117009 L292.267181,155.117009 L292.267181,41.9953163 C292.267181,36.4718141 287.79011,31.9941309 282.26028,31.9941309 L40.3661617,31.9941309 C34.8395032,31.9941309 30.3592613,36.4789604 30.3592613,41.9953163 L30.3592613,345.797207 C30.3592613,351.320709 34.8363324,355.798392 40.3661617,355.798392 L135.423689,355.798392 L135.423689,387.792523 L24.9972943,387.792523 C11.1992238,387.792523 0,376.601196 0,362.795995 L0,24.9965285 C0,11.1876599 11.1916699,0 24.9972943,0 L297.629148,0 C311.427218,0 322.626442,11.191327 322.626442,24.9965285 L322.626442,362.795995 C322.626442,376.604863 311.434772,387.792523 297.629148,387.792523 L188.545627,387.792523 L188.545627,355.798392 Z" id="Rectangle-199" sketch:type="MSShapeGroup"></path>
                <path d="M9.77655872,17.2723452 C9.77655872,16.171848 10.5808861,15.6785198 11.5602341,16.1640994 L142.017379,80.8472694 C155.3739,87.4696904 166.2015,104.918518 166.2015,119.841146 L166.2015,432.049518 C166.2015,446.962821 155.372611,453.685486 142.017379,447.066439 L11.5602341,382.409979 C10.5751374,381.921751 9.77655872,380.631595 9.77655872,379.533337 L9.77655872,17.2723452 Z" id="Path-133" sketch:type="MSShapeGroup"></path>
                <path d="M434.371409,203.591075 L224.793595,203.591075 C219.433438,203.591075 215.084295,199.250559 215.084295,193.896262 C215.084295,188.552859 219.431296,184.201449 224.793595,184.201449 L432.975012,184.201449 L378.916786,130.149803 C375.133189,126.366666 375.127083,120.222145 378.913604,116.436085 C382.69242,112.657729 388.840713,112.651449 392.628992,116.439267 L461.867275,185.669121 C464.288809,188.090361 465.163042,191.47885 464.486005,194.597259 C465.160117,197.712083 464.289125,201.098073 461.867275,203.519628 L392.628992,272.749483 C388.845394,276.53262 382.700125,276.538725 378.913604,272.752665 C375.134788,268.974309 375.128508,262.826764 378.916786,259.038947 L434.371409,203.591075 L434.371409,203.591075 Z" id="Rectangle-202" sketch:type="MSShapeGroup"></path>
            </g>
        </g>
    </g>
</svg>