<?xml version="1.0" encoding="UTF-8" standalone="no"?>
<svg width="512px" height="512px" viewBox="0 0 512 512" version="1.1" xmlns="http://www.w3.org/2000/svg" xmlns:xlink="http://www.w3.org/1999/xlink" xmlns:sketch="http://www.bohemiancoding.com/sketch/ns">
    <!-- Generator: Sketch 3.4.4 (17249) - http://www.bohemiancoding.com/sketch -->
    <title>search</title>
    <desc>Created with Sketch.</desc>
    <defs></defs>
    <g id="controls" stroke="none" stroke-width="1" fill="none" fill-rule="evenodd" sketch:type="MSPage">
        <g id="search" sketch:type="MSArtboardGroup" fill="#000000">
            <path d="M409.670909,386.158801 C409.670909,379.872722 407.0851,373.771528 402.836986,369.519181 L339.484677,306.103743 C354.445426,284.472238 362.387552,258.588385 362.387552,232.334764 C362.387552,160.414631 304.20686,102.175963 232.358322,102.175963 C160.509784,102.175963 102.329091,160.414631 102.329091,232.334764 C102.329091,304.254896 160.509784,362.493564 232.358322,362.493564 C258.585809,362.493564 284.443894,354.543524 306.053866,339.567866 L369.406176,402.79842 C373.65429,407.235652 379.74941,409.824037 386.029231,409.824037 C398.958274,409.824037 409.670909,399.100727 409.670909,386.158801 Z M315.104196,232.334764 C315.104196,278.001275 277.979373,315.163091 232.358322,315.163091 C186.737271,315.163091 149.612448,278.001275 149.612448,232.334764 C149.612448,186.668253 186.737271,149.506436 232.358322,149.506436 C277.979373,149.506436 315.104196,186.668253 315.104196,232.334764 Z" id="Icons/Search" sketch:type="MSShapeGroup"></path>
        </g>
    </g>
</svg>