<?xml version="1.0" encoding="UTF-8" standalone="no"?>
<svg width="512px" height="512px" viewBox="0 0 512 512" version="1.1" xmlns="http://www.w3.org/2000/svg" xmlns:xlink="http://www.w3.org/1999/xlink" xmlns:sketch="http://www.bohemiancoding.com/sketch/ns">
    <!-- Generator: Sketch 3.4.4 (17249) - http://www.bohemiancoding.com/sketch -->
    <title>list</title>
    <desc>Created with Sketch.</desc>
    <defs></defs>
    <g id="custom" stroke="none" stroke-width="1" fill="none" fill-rule="evenodd" sketch:type="MSPage">
        <g id="list" sketch:type="MSArtboardGroup" fill="#000000">
            <path d="M452.25,373.520292 C452.25,365.556869 445.938616,358.958604 438.321429,358.958604 L76.1785714,358.958604 C68.5613839,358.958604 62.25,365.556869 62.25,373.520292 L62.25,402.643669 C62.25,410.607092 68.5613839,417.205357 76.1785714,417.205357 L438.321429,417.205357 C445.938616,417.205357 452.25,410.607092 452.25,402.643669 L452.25,373.520292 Z M368.678571,286.150162 C368.678571,278.186739 362.367188,271.588474 354.75,271.588474 L76.1785714,271.588474 C68.5613839,271.588474 62.25,278.186739 62.25,286.150162 L62.25,315.273539 C62.25,323.236962 68.5613839,329.835227 76.1785714,329.835227 L354.75,329.835227 C362.367188,329.835227 368.678571,323.236962 368.678571,315.273539 L368.678571,286.150162 Z M424.392857,198.780032 C424.392857,190.816609 418.081473,184.218344 410.464286,184.218344 L76.1785714,184.218344 C68.5613839,184.218344 62.25,190.816609 62.25,198.780032 L62.25,227.903409 C62.25,235.866832 68.5613839,242.465097 76.1785714,242.465097 L410.464286,242.465097 C418.081473,242.465097 424.392857,235.866832 424.392857,227.903409 L424.392857,198.780032 Z M340.821429,111.409903 C340.821429,103.446479 334.510045,96.8482143 326.892857,96.8482143 L76.1785714,96.8482143 C68.5613839,96.8482143 62.25,103.446479 62.25,111.409903 L62.25,140.533279 C62.25,148.496703 68.5613839,155.094968 76.1785714,155.094968 L326.892857,155.094968 C334.510045,155.094968 340.821429,148.496703 340.821429,140.533279 L340.821429,111.409903 Z" id="Icons/Align-left" sketch:type="MSShapeGroup"></path>
        </g>
    </g>
</svg>