<?xml version="1.0" encoding="UTF-8" standalone="no"?>
<svg width="512px" height="512px" viewBox="0 0 512 512" version="1.1" xmlns="http://www.w3.org/2000/svg" xmlns:xlink="http://www.w3.org/1999/xlink" xmlns:sketch="http://www.bohemiancoding.com/sketch/ns">
    <!-- Generator: Sketch 3.4.4 (17249) - http://www.bohemiancoding.com/sketch -->
    <title>plus</title>
    <desc>Created with Sketch.</desc>
    <defs></defs>
    <g id="controls" stroke="none" stroke-width="1" fill="none" fill-rule="evenodd" sketch:type="MSPage">
        <g id="plus" sketch:type="MSArtboardGroup" fill="#000000">
            <path d="M289.101499,406.658354 C292.968494,402.791359 295.288691,397.377567 295.288691,391.809094 L295.288691,300.857376 L386.240409,300.857376 C391.808882,300.857376 397.222674,298.537179 401.089669,294.670184 C404.956664,290.803189 407.276861,285.389397 407.276861,279.820924 L407.276861,237.74802 C407.276861,232.179548 404.956664,226.765755 401.089669,222.89876 C397.222674,219.031766 391.808882,216.711569 386.240409,216.711569 L295.288691,216.711569 L295.288691,125.759851 C295.288691,120.191378 292.968494,114.777585 289.101499,110.91059 C285.234504,107.043596 279.820712,104.723399 274.252239,104.723399 L232.179336,104.723399 C226.610863,104.723399 221.19707,107.043596 217.330075,110.91059 C213.463081,114.777585 211.142884,120.191378 211.142884,125.759851 L211.142884,216.711569 L120.191166,216.711569 C114.622693,216.711569 109.2089,219.031766 105.341905,222.89876 C101.474911,226.765755 99.1547137,232.179548 99.1547137,237.74802 L99.1547137,279.820924 C99.1547137,285.389397 101.474911,290.803189 105.341905,294.670184 C109.2089,298.537179 114.622693,300.857376 120.191166,300.857376 L211.142884,300.857376 L211.142884,391.809094 C211.142884,397.377567 213.463081,402.791359 217.330075,406.658354 C221.19707,410.525349 226.610863,412.845546 232.179336,412.845546 L274.252239,412.845546 C279.820712,412.845546 285.234504,410.525349 289.101499,406.658354 L289.101499,406.658354 Z" id="Icons/Close" sketch:type="MSShapeGroup"></path>
        </g>
    </g>
</svg>