<?xml version="1.0" encoding="UTF-8" standalone="no"?>
<svg width="512px" height="512px" viewBox="0 0 512 512" version="1.1" xmlns="http://www.w3.org/2000/svg" xmlns:xlink="http://www.w3.org/1999/xlink" xmlns:sketch="http://www.bohemiancoding.com/sketch/ns">
    <!-- Generator: Sketch 3.4.4 (17249) - http://www.bohemiancoding.com/sketch -->
    <title>cross</title>
    <desc>Created with Sketch.</desc>
    <defs></defs>
    <g id="controls" stroke="none" stroke-width="1" fill="none" fill-rule="evenodd" sketch:type="MSPage">
        <g id="cross" sketch:type="MSArtboardGroup" fill="#000000">
            <path d="M385.937838,339.125249 C385.937838,333.656493 383.750336,328.187736 379.812831,324.250232 L315.500255,259.937655 L379.812831,195.625078 C383.750336,191.687574 385.937838,186.218817 385.937838,180.75006 C385.937838,175.281304 383.750336,169.812547 379.812831,165.875043 L350.062796,136.125007 C346.125291,132.187503 340.656535,130 335.187778,130 C329.719021,130 324.250265,132.187503 320.31276,136.125007 L256.000184,200.437584 L191.687607,136.125007 C187.750102,132.187503 182.281346,130 176.812589,130 C171.343833,130 165.875076,132.187503 161.937571,136.125007 L132.187536,165.875043 C128.250031,169.812547 126.062529,175.281304 126.062529,180.75006 C126.062529,186.218817 128.250031,191.687574 132.187536,195.625078 L196.500113,259.937655 L132.187536,324.250232 C128.250031,328.187736 126.062529,333.656493 126.062529,339.125249 C126.062529,344.594006 128.250031,350.062762 132.187536,354.000267 L161.937571,383.750302 C165.875076,387.687807 171.343833,389.87531 176.812589,389.87531 C182.281346,389.87531 187.750102,387.687807 191.687607,383.750302 L256.000184,319.437726 L320.31276,383.750302 C324.250265,387.687807 329.719021,389.87531 335.187778,389.87531 C340.656535,389.87531 346.125291,387.687807 350.062796,383.750302 L379.812831,354.000267 C383.750336,350.062762 385.937838,344.594006 385.937838,339.125249 L385.937838,339.125249 Z" id="Icons/Close" sketch:type="MSShapeGroup"></path>
        </g>
    </g>
</svg>