<?xml version="1.0" encoding="UTF-8" standalone="no"?>
<svg width="512px" height="512px" viewBox="0 0 512 512" version="1.1" xmlns="http://www.w3.org/2000/svg" xmlns:xlink="http://www.w3.org/1999/xlink" xmlns:sketch="http://www.bohemiancoding.com/sketch/ns">
    <!-- Generator: Sketch 3.4.4 (17249) - http://www.bohemiancoding.com/sketch -->
    <title>delete</title>
    <desc>Created with Sketch.</desc>
    <defs></defs>
    <g id="custom" stroke="none" stroke-width="1" fill="none" fill-rule="evenodd" sketch:type="MSPage">
        <g id="delete" sketch:type="MSArtboardGroup" fill="#000000">
            <path d="M464,117.875 C464,112.695312 459.863636,108.666667 454.545455,108.666667 L363.25,108.666667 L342.568182,60.6106771 C336.659091,46.5104167 318.931818,35 303.272727,35 L208.727273,35 C193.068182,35 175.340909,46.5104167 169.431818,60.6106771 L148.75,108.666667 L57.4545455,108.666667 C52.1363636,108.666667 48,112.695312 48,117.875 L48,136.291667 C48,141.471354 52.1363636,145.5 57.4545455,145.5 L85.8181818,145.5 L85.8181818,419.447917 C85.8181818,451.101562 107.090909,477 133.090909,477 L378.909091,477 C404.909091,477 426.181818,449.950521 426.181818,418.296875 L426.181818,145.5 L454.545455,145.5 C459.863636,145.5 464,141.471354 464,136.291667 L464,117.875 Z M386,403.773438 C386,417.179688 378.165179,425 376.714286,425 L135.285714,425 C133.834821,425 126,417.179688 126,403.773438 L126,139 L386,139 L386,403.773438 Z M348,200.1 C348,194.98125 345.15625,191 341.5,191 L328.5,191 C324.84375,191 322,194.98125 322,200.1 L322,363.9 C322,369.01875 324.84375,373 328.5,373 L341.5,373 C345.15625,373 348,369.01875 348,363.9 L348,200.1 Z M270,200.1 C270,194.98125 267.15625,191 263.5,191 L250.5,191 C246.84375,191 244,194.98125 244,200.1 L244,363.9 C244,369.01875 246.84375,373 250.5,373 L263.5,373 C267.15625,373 270,369.01875 270,363.9 L270,200.1 Z M192,200.1 C192,194.98125 189.15625,191 185.5,191 L172.5,191 C168.84375,191 166,194.98125 166,200.1 L166,363.9 C166,369.01875 168.84375,373 172.5,373 L185.5,373 C189.15625,373 192,369.01875 192,363.9 L192,200.1 Z" id="Icons/Trash" sketch:type="MSShapeGroup"></path>
        </g>
    </g>
</svg>