<?xml version="1.0" encoding="UTF-8" standalone="no"?>
<svg width="512px" height="512px" viewBox="0 0 512 512" version="1.1" xmlns="http://www.w3.org/2000/svg" xmlns:xlink="http://www.w3.org/1999/xlink" xmlns:sketch="http://www.bohemiancoding.com/sketch/ns">
    <!-- Generator: Sketch 3.4.4 (17249) - http://www.bohemiancoding.com/sketch -->
    <title>globe</title>
    <desc>Created with Sketch.</desc>
    <defs></defs>
    <g id="custom" stroke="none" stroke-width="1" fill="none" fill-rule="evenodd" sketch:type="MSPage">
        <g id="globe" sketch:type="MSArtboardGroup" fill="#000000">
            <path d="M256.512369,19 C125.523098,19 19,125.553385 19,256.5 C19,387.446615 125.523098,494 256.512369,494 C387.452164,494 494,387.446615 494,256.5 C494,125.553385 387.452164,19 256.512369,19 L256.512369,19 Z M459.069528,256.5 C459.069528,302.83724 443.335972,345.5625 417.11338,379.703125 C409.691891,373.914062 401.800375,358.253906 409.221863,342.02474 C416.717567,325.696615 418.671892,287.894531 416.940211,273.174479 C415.307484,258.479167 407.663351,223.076823 386.907921,222.730469 C366.17723,222.433594 351.952711,215.580729 339.63304,190.989583 C314.078381,139.828125 387.600594,130.00651 362.045935,101.704427 C354.896568,93.7382813 317.937555,134.410156 312.519869,80.2057292 C312.173533,76.3216146 315.859539,70.5078125 320.831936,64.4713542 C401.082964,91.4375 459.069528,167.313802 459.069528,256.5 L459.069528,256.5 Z M228.681787,55.9361979 C223.833082,65.3867187 211.043383,69.2213542 203.275559,76.3216146 C186.354565,91.6354167 179.081506,89.5078125 169.977814,104.203125 C160.799906,118.898437 131.212906,140.050781 131.212906,150.688802 C131.212906,161.326823 146.154836,173.845052 153.625801,171.420573 C161.096766,168.946615 180.813187,169.095052 192.390709,173.152344 C203.992969,177.259115 289.216395,181.365885 262.053747,253.407552 C253.444821,276.316406 215.718921,272.457031 205.675173,310.382812 C204.166137,315.949219 198.946357,339.723958 198.624759,347.492187 C198.006302,359.515625 207.134733,404.838542 195.532472,404.838542 C183.880735,404.838542 152.537316,364.290365 152.537316,356.942708 C152.537316,349.595052 144.423155,323.841146 144.423155,301.773437 C144.423155,279.730469 106.870423,280.076823 106.870423,250.760417 C106.870423,224.338542 127.23004,211.177083 122.653456,198.485677 C118.175824,185.86849 82.4042498,185.447917 67.487058,183.889323 C93.5364825,116.325521 154.813239,66.1783854 228.681787,55.9361979 L228.681787,55.9361979 Z M192.786522,448.726562 C204.957763,442.294271 206.194677,433.981771 217.227957,433.561198 C229.844487,432.992188 240.11088,428.638021 254.335399,425.496094 C266.95193,422.75 289.537993,409.934896 309.402844,408.302083 C326.175408,406.941406 359.250508,409.167969 368.156294,425.347656 C336.120202,446.648437 297.70163,459.067708 256.487631,459.067708 C234.247904,459.067708 212.82454,455.38151 192.786522,448.726562 L192.786522,448.726562 Z" id="Globe" sketch:type="MSShapeGroup"></path>
        </g>
    </g>
</svg>