<?xml version="1.0" encoding="UTF-8" standalone="no"?>
<svg width="512px" height="512px" viewBox="0 0 512 512" version="1.1" xmlns="http://www.w3.org/2000/svg" xmlns:xlink="http://www.w3.org/1999/xlink" xmlns:sketch="http://www.bohemiancoding.com/sketch/ns">
    <!-- Generator: Sketch 3.4.4 (17249) - http://www.bohemiancoding.com/sketch -->
    <title>users</title>
    <desc>Created with Sketch.</desc>
    <defs></defs>
    <g id="custom" stroke="none" stroke-width="1" fill="none" fill-rule="evenodd" sketch:type="MSPage">
        <g id="users" sketch:type="MSArtboardGroup" fill="#000000">
            <path d="M387.758,455.677159 C387.758,406.265159 339.644,381.119159 292.784,360.923159 C246.078,340.815159 231.162,323.875159 231.162,287.575159 C231.162,265.817159 245.418,272.901159 251.666,232.993159 C254.306,216.449159 266.89,232.729159 269.31,194.955159 C269.31,179.907159 262.424,176.167159 262.424,176.167159 C262.424,176.167159 265.922,153.881159 267.286,136.721159 C268.694,118.747159 258.53,80.401159 216.664,68.631159 C209.36,61.129159 204.41,49.227159 226.938,37.303159 C177.658,35.015159 166.196,60.799159 139.95,79.763159 C117.62,96.395159 111.592,122.729159 112.67,136.743159 C114.1,153.903159 117.576,176.189159 117.576,176.189159 C117.576,176.189159 110.668,179.929159 110.668,194.977159 C113.088,232.773159 125.716,216.471159 128.334,233.015159 C134.582,272.923159 148.86,265.839159 148.86,287.597159 C148.86,323.897159 144.196,336.217159 97.468,356.325159 C50.586,376.499159 36,408.839159 36.242,455.677159 C36.308,469.691159 36,474.839159 36,474.839159 L388,474.839159 C388,474.839159 387.758,469.691159 387.758,455.677159 L387.758,455.677159 Z M443.616,328.869159 C418.646,318.815159 408.306,306.825159 408.306,283.417159 C408.306,269.315159 417.502,273.913159 421.55,248.151159 C423.244,237.503159 431.384,247.975159 432.946,223.621159 C432.946,213.919159 428.502,211.499159 428.502,211.499159 C428.502,211.499159 430.768,197.067159 431.648,186.001159 C432.748,172.207159 423.64,136.567159 381.752,136.567159 C339.886,136.567159 330.756,172.207159 331.834,186.001159 C332.758,197.045159 335.002,211.499159 335.002,211.499159 C335.002,211.499159 330.558,213.897159 330.558,223.621159 C332.12,247.975159 340.26,237.503159 341.954,248.151159 C346.002,273.935159 355.198,269.337159 355.198,283.417159 C355.198,306.825159 345.562,317.781159 315.4,330.761159 C313.882,331.399159 312.76,332.257159 311.374,333.005159 C347.454,348.669159 404.346,375.707159 417.81,430.839159 L476,430.839159 L476,379.843159 C476,357.843159 469.994,339.495159 443.616,328.869159 L443.616,328.869159 Z" id="Shape" sketch:type="MSShapeGroup"></path>
        </g>
    </g>
</svg>