<?xml version="1.0" encoding="UTF-8" standalone="no"?>
<svg width="512px" height="512px" viewBox="0 0 512 512" version="1.1" xmlns="http://www.w3.org/2000/svg" xmlns:xlink="http://www.w3.org/1999/xlink" xmlns:sketch="http://www.bohemiancoding.com/sketch/ns">
    <!-- Generator: Sketch 3.4.4 (17249) - http://www.bohemiancoding.com/sketch -->
    <title>user</title>
    <desc>Created with Sketch.</desc>
    <defs></defs>
    <g id="custom" stroke="none" stroke-width="1" fill="none" fill-rule="evenodd" sketch:type="MSPage">
        <g id="user" sketch:type="MSArtboardGroup" fill="#000000">
            <path d="M256.5,494 C387.667628,494 494,387.667628 494,256.5 C494,125.332372 387.667628,19 256.5,19 C125.332372,19 19,125.332372 19,256.5 C19,387.667628 125.332372,494 256.5,494 L256.5,494 Z M256.5,457.121118 C367.299984,457.121118 457.121118,367.299984 457.121118,256.5 C457.121118,145.700016 367.299984,55.878882 256.5,55.878882 C145.700016,55.878882 55.878882,145.700016 55.878882,256.5 C55.878882,367.299984 145.700016,457.121118 256.5,457.121118 L256.5,457.121118 Z M370.095322,421.885753 C337.798874,444.111004 298.668774,457.121118 256.5,457.121118 C214.314549,457.121118 175.170177,444.100712 142.866365,421.859381 C143.205534,421.719663 143.54465,421.580186 143.883696,421.440947 C195.035688,400.456485 211.419746,382.755149 211.419746,344.895872 C211.419746,322.16653 195.782609,329.582265 188.939855,287.934764 C186.096739,270.646689 172.266667,287.659257 169.640399,248.238773 C169.640399,232.534864 177.181884,228.631846 177.181884,228.631846 C177.181884,228.631846 173.375,205.35149 171.832971,187.466483 C170.628261,172.841644 177.205978,145.359803 201.685688,128.002852 C230.430072,108.212253 242.983152,81.3043863 296.954167,83.7150741 C272.281703,96.1817735 277.702899,108.602555 285.726268,116.408592 C331.553442,128.69162 342.709058,168.731995 341.142935,187.489442 C339.625,205.374449 335.818116,228.654805 335.818116,228.654805 C335.818116,228.654805 343.383696,232.557823 343.383696,248.261732 C340.709239,287.682216 326.903261,270.669648 324.036051,287.957723 C317.169203,329.605224 301.580254,322.189489 301.580254,344.918831 C301.580254,382.801067 317.916123,400.479444 369.068116,421.463906 C369.410453,421.604278 369.75286,421.744892 370.095322,421.885753 L370.095322,421.885753 L370.095322,421.885753 Z" id="Oval-4" sketch:type="MSShapeGroup"></path>
        </g>
    </g>
</svg>