<?xml version="1.0" encoding="UTF-8" standalone="no"?>
<svg width="512px" height="512px" viewBox="0 0 512 512" version="1.1" xmlns="http://www.w3.org/2000/svg" xmlns:xlink="http://www.w3.org/1999/xlink" xmlns:sketch="http://www.bohemiancoding.com/sketch/ns">
    <!-- Generator: Sketch 3.4.4 (17249) - http://www.bohemiancoding.com/sketch -->
    <title>suitcase</title>
    <desc>Created with Sketch.</desc>
    <defs></defs>
    <g id="custom" stroke="none" stroke-width="1" fill="none" fill-rule="evenodd" sketch:type="MSPage">
        <g id="suitcase" sketch:type="MSArtboardGroup" fill="#000000">
            <path d="M234.839552,266.590103 L277.160448,266.590103 L277.160448,308.950514 L467.604478,308.950514 C467.604478,308.950514 464.451571,214.507978 463.372388,184.961591 C462.314366,156.876639 452.263153,139.50887 421.051493,139.50887 L353.168776,139.50887 C342.652034,119.641838 331.331194,98.3133707 327.83972,91.7263268 C320.835612,78.5310588 318.444481,75.968254 302.891552,75.968254 L209.087287,75.968254 C193.534358,75.968254 191.164388,78.5310588 184.139119,91.7263268 C180.647646,98.3133707 169.326806,119.641838 158.831224,139.50887 L90.927347,139.50887 C59.6945261,139.50887 49.7702761,156.876639 48.6064515,184.961591 C47.4637873,213.067724 44.3955224,308.950514 44.3955224,308.950514 L234.839552,308.950514 L234.839552,266.590103 L234.839552,266.590103 Z M206.251787,116.549528 C211.11869,107.399679 212.769205,105.620542 223.539873,105.620542 L288.438966,105.620542 C299.209634,105.620542 300.88131,107.399679 305.705892,116.549528 C307.52569,119.93836 312.434914,129.257651 317.873149,139.50887 L194.08453,139.50887 C199.522765,129.257651 204.431989,119.93836 206.251787,116.549528 L206.251787,116.549528 Z M277.160448,372.49113 L234.839552,372.49113 L234.839552,330.130719 L54.9757463,330.130719 C54.9757463,330.130719 57.5996418,368.191548 59.1866754,400.491361 C59.8426493,413.898431 63.799653,436.031746 97.2754813,436.031746 L414.703358,436.031746 C448.179187,436.031746 452.051549,413.856071 452.792164,400.491361 C454.633123,367.280799 457.024254,330.130719 457.024254,330.130719 L277.160448,330.130719 L277.160448,372.49113 L277.160448,372.49113 Z" id="Brands" sketch:type="MSShapeGroup"></path>
        </g>
    </g>
</svg>