<?xml version="1.0" encoding="UTF-8" standalone="no"?>
<svg width="512px" height="512px" viewBox="0 0 512 512" version="1.1" xmlns="http://www.w3.org/2000/svg" xmlns:xlink="http://www.w3.org/1999/xlink" xmlns:sketch="http://www.bohemiancoding.com/sketch/ns">
    <!-- Generator: Sketch 3.4.4 (17249) - http://www.bohemiancoding.com/sketch -->
    <title>settings</title>
    <desc>Created with Sketch.</desc>
    <defs></defs>
    <g id="custom" stroke="none" stroke-width="1" fill="none" fill-rule="evenodd" sketch:type="MSPage">
        <g id="settings" sketch:type="MSArtboardGroup" fill="#000000">
            <path d="M486,223.356771 C486,218.265625 482.40625,213.473958 477.315104,212.575521 L422.510417,204.190104 C419.515625,194.307292 415.322917,184.424479 410.231771,174.841146 C420.414062,160.765625 431.494792,147.588542 441.677083,133.8125 C443.174479,131.716146 444.072917,129.619792 444.072917,126.924479 C444.072917,124.528646 443.473958,122.132812 441.976562,120.335938 C429.398438,102.666667 408.434896,84.0989583 392.5625,69.4244792 C390.466146,67.6276042 387.770833,66.4296875 385.075521,66.4296875 C382.380208,66.4296875 379.684896,67.328125 377.888021,69.125 L335.361979,101.169271 C326.677083,96.6770833 317.692708,93.0833333 308.408854,90.0885417 L300.023438,34.984375 C299.424479,29.8932292 294.632812,26 289.242188,26 L222.757812,26 C217.367188,26 213.174479,29.59375 211.976562,34.3854167 C207.184896,52.3541667 205.388021,71.8203125 203.291667,90.0885417 C194.007812,93.0833333 184.723958,96.9765625 176.039062,101.46875 L134.710938,69.4244792 C132.315104,67.6276042 129.619792,66.4296875 126.924479,66.4296875 C116.742188,66.4296875 76.3125,110.153646 69.125,120.036458 C67.6276042,122.132812 66.4296875,124.229167 66.4296875,126.924479 C66.4296875,129.619792 67.6276042,132.015625 69.4244792,134.111979 C80.5052083,147.588542 91.2864583,161.065104 101.46875,175.440104 C96.6770833,184.424479 92.7838542,193.408854 89.7890625,202.992188 L34.0859375,211.377604 C29.59375,212.276042 26,217.666667 26,222.158854 L26,288.643229 C26,293.734375 29.59375,298.526042 34.6848958,299.424479 L89.4895833,307.510417 C92.484375,317.692708 96.6770833,327.575521 101.768229,337.158854 C91.5859375,351.234375 80.5052083,364.411458 70.3229167,378.1875 C68.8255208,380.283854 67.9270833,382.380208 67.9270833,385.075521 C67.9270833,387.471354 68.5260417,389.867188 70.0234375,391.963542 C82.6015625,409.333333 103.565104,427.901042 119.4375,442.276042 C121.533854,444.372396 124.229167,445.570312 126.924479,445.570312 C129.619792,445.570312 132.315104,444.671875 134.411458,442.875 L176.638021,410.830729 C185.322917,415.322917 194.307292,418.916667 203.591146,421.911458 L211.976562,477.015625 C212.575521,482.106771 217.367188,486 222.757812,486 L289.242188,486 C294.632812,486 298.825521,482.40625 300.023438,477.614583 C304.815104,459.645833 306.611979,440.179688 308.708333,421.911458 C317.992188,418.916667 327.276042,415.023438 335.960938,410.53125 L377.289062,442.875 C379.684896,444.372396 382.380208,445.570312 385.075521,445.570312 C395.257812,445.570312 435.6875,401.546875 442.875,391.963542 C444.671875,389.867188 445.570312,387.770833 445.570312,385.075521 C445.570312,382.380208 444.372396,379.684896 442.575521,377.588542 C431.494792,364.111979 420.713542,350.934896 410.53125,336.260417 C415.322917,327.575521 418.916667,318.591146 422.210938,309.007812 L477.614583,300.622396 C482.40625,299.723958 486,294.333333 486,289.841146 L486,223.356771 Z M332.666667,256 C332.666667,298.226562 298.226562,332.666667 256,332.666667 C213.773437,332.666667 179.333333,298.226562 179.333333,256 C179.333333,213.773437 213.773437,179.333333 256,179.333333 C298.226562,179.333333 332.666667,213.773437 332.666667,256 Z" id="Icons/Settings" sketch:type="MSShapeGroup"></path>
        </g>
    </g>
</svg>